:SAMPLES-PER-SECOND 30
:FULLY-SPECIFIED
:DEGREES
180
root  36.3528 37.5993 -32.3972 -106.115 88.8973 -119.371
RightUpLeg  -43.3941 -13.7373 4.50368
RightLeg  15.8429 -1.47913 1.15655
RightFoot  9.65393 0.192288 -0.639873
RightToes  0.000482159 0.542163 -0.142577
Spine  57.0691 -4.68596 8.03057
Spine1  12.0393 0.82741 -3.64472
HEad  -26.437 -9.52943 0.987257
LeftShoulder1  9.49617 -21.4639 -31.9193
LeftArm  -30.104 -54.5 -7.42031
LeftForeArm  -10.9918 -16.2047 -5.86416
LeftHand  -0.25398 0.0180481 5.50724
RightShoulder  4.70364 13.6338 21.0948
RightArm  -18.9074 51.1682 14.1425
RightForeArm  -41.6192 22.4766 6.89912
RightHand  0.0393888 0.360493 0.76134
LeftUpLeg  -46.4043 21.1723 -14.299
LeftLeg  23.0325 -0.727499 -0.0019871
LeftFoot  7.4505 -2.09669 12.3368
LeftToes  1.06247e-005 4.65855e-005 -8.18501e-006
181
root  36.8824 37.3658 -32.0748 -166.243 87.4011 177.487
RightUpLeg  -48.5728 -15.9922 7.1393
RightLeg  19.5118 0.482939 0.583687
RightFoot  11.8018 1.1304 -5.17129
RightToes  0.000482159 0.542163 -0.142577
Spine  58.0561 -5.24245 9.31596
Spine1  12.3195 0.939098 -3.91704
HEad  -29.6594 -11.2045 2.6968
LeftShoulder1  9.334 -23.0081 -29.0037
LeftArm  -38.0993 -58.9045 -2.92809
LeftForeArm  -9.28392 -12.4993 -5.77809
LeftHand  -0.25398 0.0180481 5.50724
RightShoulder  4.53768 13.4874 20.3084
RightArm  -27.8612 53.342 7.28994
RightForeArm  -38.9358 19.5886 7.27437
RightHand  0.123496 1.28257 2.01421
LeftUpLeg  -49.7293 18.0411 -14.3268
LeftLeg  25.5781 0.158445 0.419076
LeftFoot  5.71766 -1.72549 11.2305
LeftToes  1.06247e-005 4.65855e-005 -8.18501e-006
182
root  37.4304 37.1621 -31.7886 -153.783 86.5172 -173.205
RightUpLeg  -53.1687 -16.2618 9.58782
RightLeg  22.885 0.809284 0.0876739
RightFoot  10.7945 1.40937 -6.80029
RightToes  0.000482159 0.542163 -0.142577
Spine  60.4096 -5.66787 10.0703
Spine1  10.5799 1.53266 -4.70899
HEad  -31.7704 -11.9452 3.68927
LeftShoulder1  9.11029 -23.6277 -27.3283
LeftArm  -44.5899 -61.6506 3.51549
LeftForeArm  -9.98594 -10.6484 -5.61307
LeftHand  -0.25398 0.0180481 5.50724
RightShoulder  4.52552 13.9405 19.4865
RightArm  -36.7732 54.9128 0.270221
RightForeArm  -35.6461 16.5854 7.61685
RightHand  0.228464 2.01736 3.38399
LeftUpLeg  -53.7096 16.6279 -13.7896
LeftLeg  28.4959 0.454655 0.609857
LeftFoot  3.93503 -1.41497 10.3466
LeftToes  1.06247e-005 4.65855e-005 -8.18501e-006
183
root  37.9841 36.9933 -31.5034 -144.803 86 -167.141
RightUpLeg  -56.8716 -15.9262 11.2576
RightLeg  25.3931 0.746878 0.16281
RightFoot  8.62657 1.16226 -6.25464
RightToes  0.000482159 0.542163 -0.142577
Spine  62.9236 -5.48313 10.1016
Spine1  8.8728 2.08898 -4.56017
HEad  -33.8151 -12.1556 4.09376
LeftShoulder1  8.98326 -24.0881 -26.2652
LeftArm  -51.619 -63.2207 11.4272
LeftForeArm  -10.9913 -9.7361 -5.37609
LeftHand  -0.25398 0.0180481 5.50724
RightShoulder  4.37141 14.3484 17.9094
RightArm  -45.6389 56.1311 -6.2808
RightForeArm  -32.4523 13.9033 7.47249
RightHand  0.333597 2.63632 4.56896
LeftUpLeg  -57.4724 16.0021 -13.3416
LeftLeg  31.1089 0.479563 0.664177
LeftFoot  2.60479 -1.21689 9.79436
LeftToes  1.06247e-005 4.65855e-005 -8.18501e-006
184
root  38.5279 36.8371 -31.2057 -146.239 85.3114 -171.141
RightUpLeg  -60.3501 -16.1622 12.6738
RightLeg  27.9868 0.790777 0.216736
RightFoot  7.13786 1.09135 -6.4031
RightToes  0.000482159 0.542163 -0.142577
Spine  65.4466 -5.19849 9.81381
Spine1  6.97605 2.05799 -3.7769
HEad  -35.6671 -11.9555 4.64947
LeftShoulder1  8.80617 -24.5361 -25.0604
LeftArm  -58.7931 -63.8238 19.386
LeftForeArm  -11.5157 -8.97646 -4.92261
LeftHand  -0.25398 0.0180481 5.50724
RightShoulder  4.09597 14.4211 16.1297
RightArm  -52.5633 56.7924 -11.2891
RightForeArm  -29.9933 12.3368 6.86634
RightHand  0.439422 3.77141 5.23495
LeftUpLeg  -60.374 15.1178 -13.3166
LeftLeg  32.9454 0.518776 0.718589
LeftFoot  1.63771 -1.07353 9.33088
LeftToes  1.06247e-005 4.65855e-005 -8.18501e-006
185
root  39.0572 36.6943 -30.9328 -150.547 84.4019 -177.831
RightUpLeg  -63.5719 -16.2834 13.5187
RightLeg  30.687 0.0686315 -0.203266
RightFoot  5.96349 1.17384 -7.42982
RightToes  0.000482159 0.542163 -0.142577
Spine  67.8629 -5.41741 9.76705
Spine1  5.09834 1.7967 -3.64941
HEad  -37.0329 -11.6999 5.66078
LeftShoulder1  8.35558 -24.9252 -22.939
LeftArm  -65.3402 -63.7869 26.1251
LeftForeArm  -12.168 -8.24319 -4.21326
LeftHand  -0.25398 0.0180481 5.50724
RightShoulder  3.85221 14.2042 14.9367
RightArm  -57.6203 56.894 -15.2818
RightForeArm  -28.0152 11.998 6.21909
RightHand  0.556445 5.49855 5.51307
LeftUpLeg  -62.6592 14.0056 -13.4645
LeftLeg  34.2002 0.497471 0.723239
LeftFoot  0.762007 -0.976995 9.15059
LeftToes  1.06247e-005 4.65855e-005 -8.18501e-006
186
root  39.5602 36.5925 -30.7179 -150.503 83.5924 179.909
RightUpLeg  -66.2565 -15.9706 14.1573
RightLeg  32.6927 -0.71464 -0.744794
RightFoot  4.48957 1.13244 -7.89915
RightToes  0.000482159 0.542163 -0.142577
Spine  69.9621 -5.88796 9.83067
Spine1  3.50414 1.74787 -4.24169
HEad  -37.8074 -11.5471 6.50036
LeftShoulder1  7.67934 -25.0208 -20.3209
LeftArm  -70.9309 -63.2766 31.3879
LeftForeArm  -13.4014 -8.00848 -3.39936
LeftHand  -0.25398 0.0180481 5.50724
RightShoulder  3.73241 14.1075 14.3231
RightArm  -61.7864 56.485 -19.1554
RightForeArm  -26.4555 12.3512 5.71112
RightHand  0.67866 7.11775 5.82008
LeftUpLeg  -64.8323 13.2046 -13.4456
LeftLeg  35.3047 0.398533 0.667284
LeftFoot  -0.2035 -0.849991 8.70847
LeftToes  1.06247e-005 4.65855e-005 -8.18501e-006
187
root  40.0346 36.5123 -30.5546 -147.954 83.1599 -179.729
RightUpLeg  -68.4766 -15.3998 14.8505
RightLeg  34.0067 -1.06333 -1.02889
RightFoot  3.0812 1.02666 -7.92989
RightToes  0.000482159 0.542163 -0.142577
Spine  71.6302 -5.9762 9.65463
Spine1  2.27658 1.88287 -4.5758
HEad  -38.2246 -11.4234 6.76588
LeftShoulder1  7.07949 -24.8974 -18.1917
LeftArm  -75.5357 -62.4119 35.4973
LeftForeArm  -14.5558 -8.45828 -2.62426
LeftHand  -0.25398 0.0180481 5.50724
RightShoulder  3.69319 14.2928 13.8367
RightArm  -65.5093 55.6936 -22.8151
RightForeArm  -25.4118 12.8373 5.2735
RightHand  0.787209 8.20406 6.21011
LeftUpLeg  -66.9913 12.7547 -13.283
LeftLeg  36.3661 0.34669 0.642951
LeftFoot  -1.0353 -0.704911 7.87341
LeftToes  1.06247e-005 4.65855e-005 -8.18501e-006
188
root  40.4803 36.4258 -30.4284 -145.664 83.0138 -179.371
RightUpLeg  -70.312 -14.7289 15.4082
RightLeg  35.1134 -1.3878 -1.31244
RightFoot  2.0459 0.985906 -8.26197
RightToes  0.000482159 0.542163 -0.142577
Spine  72.9395 -5.69558 9.31341
Spine1  1.22404 1.97386 -4.5138
HEad  -38.5314 -11.1569 6.90344
LeftShoulder1  6.65818 -24.8451 -16.6405
LeftArm  -79.0632 -61.3723 38.5033
LeftForeArm  -14.9076 -9.28645 -1.93038
LeftHand  -0.25398 0.0180481 5.50724
RightShoulder  3.68007 14.4654 13.5351
RightArm  -68.9049 54.9119 -25.658
RightForeArm  -24.2839 13.3064 4.8259
RightHand  0.859564 9.0222 6.38803
LeftUpLeg  -68.8104 12.3789 -13.0631
LeftLeg  37.1651 0.369348 0.672277
LeftFoot  -1.58968 -0.589322 7.01416
LeftToes  1.06247e-005 4.65855e-005 -8.18501e-006
189
root  40.8936 36.3491 -30.3418 -143.808 82.9198 -179.146
RightUpLeg  -71.7237 -13.9988 15.6023
RightLeg  36.1186 -1.96607 -1.80841
RightFoot  1.01684 0.928052 -8.48007
RightToes  0.000482159 0.542163 -0.142577
Spine  74.0496 -5.536 9.05864
Spine1  0.317606 1.97986 -4.68353
HEad  -38.7832 -10.6174 7.2514
LeftShoulder1  6.24738 -24.8212 -15.0876
LeftArm  -81.8644 -60.3953 40.3098
LeftForeArm  -14.6179 -10.2898 -1.23
LeftHand  -0.25398 0.0180481 5.50724
RightShoulder  3.66395 14.3025 13.6445
RightArm  -72.2576 54.5678 -27.6683
RightForeArm  -22.364 13.9187 4.38586
RightHand  0.895791 9.82406 6.28109
LeftUpLeg  -70.1511 11.988 -12.773
LeftLeg  37.6943 0.462973 0.757495
LeftFoot  -2.18171 -0.49855 6.37969
LeftToes  1.06247e-005 4.65855e-005 -8.18501e-006
